{"title":"Mana Ft. Jorge Y Mateus - Voce E Minha Religiao (h264/mp4)","uid":7948508,"size":79934772,"categoryP":"video","categoryS":"music_videos","magnet":"?xt=urn:btih:be4901f1e29ad1862d8d46455ef3364e457250a5&amp;dn=Mana+Ft.+Jorge+Y+Mateus+-+Voce+E+Minha+Religiao+%28h264%2Fmp4%29&amp;tr=udp%3A%2F%2Ftracker.openbittorrent.com%3A80&amp;tr=udp%3A%2F%2Fopen.demonii.com%3A1337&amp;tr=udp%3A%2F%2Ftracker.coppersurfer.tk%3A6969&amp;tr=udp%3A%2F%2Fexodus.desync.com%3A6969","seeders":5,"leechers":0,"uploader":"MusicVideos-HQ","files":1,"time":1356197105,"description":"General\n\nFormat                         : MPEG-4\nFormat profile                 : Base Media\nCodec ID                       : isom\nFile size                      : 76.2 MiB\nDuration                       : 4mn 30s\nOverall bit rate mode          : Variable\nOverall bit rate               : 2 363 Kbps\nEncoded date                   : UTC 2012-12-09 17:22:13\nTagged date                    : UTC 2012-12-09 17:22:13\n\nVideo\nID                             : 1\nFormat                         : AVC\nFormat/Info                    : Advanced Video Codec\nFormat profile                 : &lt;a class=&quot;__cf_email__&quot; href=&quot;/cdn-cgi/l/email-protection&quot; data-cfemail=&quot;1951707e7159552a3729&quot;&gt;[email&amp;#160;protected]&lt;/a&gt;&lt;script cf-hash='f9e31' type=&quot;text/javascript&quot;&gt;\n/* &lt;![CDATA[ */!function(){try{var t=&quot;currentScript&quot;in document?document.currentScript:function(){for(var t=document.getElementsByTagName(&quot;script&quot;),e=t.length;e--;)if(t[e].getAttribute(&quot;cf-hash&quot;))return t[e]}();if(t&amp;&amp;t.previousSibling){var e,r,n,i,c=t.previousSibling,a=c.getAttribute(&quot;data-cfemail&quot;);if(a){for(e=&quot;&quot;,r=parseInt(a.substr(0,2),16),n=2;a.length-n;n+=2)i=parseInt(a.substr(n,2),16)^r,e+=String.fromCharCode(i);e=document.createTextNode(e),c.parentNode.replaceChild(e,c)}}}catch(u){}}();/* ]]&gt; */&lt;/script&gt;\nFormat settings, CABAC         : Yes\nFormat settings, ReFrames      : 2 frames\nCodec ID                       : avc1\nCodec ID/Info                  : Advanced Video Coding\nDuration                       : 4mn 30s\nBit rate                       : 2 168 Kbps\nMaximum bit rate               : 5 270 Kbps\nWidth                          : 720 pixels\nHeight                         : 480 pixels\nDisplay aspect ratio           : 16:9\nOriginal display aspect ratio  : 16:9\nFrame rate mode                : Constant\nFrame rate                     : 23.976 fps\nStandard                       : NTSC\nColor space                    : YUV\nChroma subsampling             : 4:2:0\nBit depth                      : 8 bits\nScan type                      : Progressive\nBits/(Pixel*Frame)             : 0.262\nStream size                    : 69.9 MiB (92%)\n\n\nAudio\nID                             : 2\nFormat                         : AAC\nFormat/Info                    : Advanced Audio Codec\nFormat profile                 : LC\nCodec ID                       : 40\nDuration                       : 4mn 30s\nBit rate mode                  : Variable\nBit rate                       : 192 Kbps\nMaximum bit rate               : 218 Kbps\nChannel(s)                     : 2 channels\nChannel positions              : Front: L R\nSampling rate                  : 44.1 KHz\nCompression mode               : Lossy\nStream size                    : 6.17 MiB (8%)","torrent":{"xt":"urn:btih:be4901f1e29ad1862d8d46455ef3364e457250a5","amp;dn":"Mana+Ft.+Jorge+Y+Mateus+-+Voce+E+Minha+Religiao+%28h264%2Fmp4%29","amp;tr":["udp%3A%2F%2Ftracker.openbittorrent.com%3A80","udp%3A%2F%2Fopen.demonii.com%3A1337","udp%3A%2F%2Ftracker.coppersurfer.tk%3A6969","udp%3A%2F%2Fexodus.desync.com%3A6969"],"infoHash":"be4901f1e29ad1862d8d46455ef3364e457250a5","infoHashBuffer":{"type":"Buffer","data":[190,73,1,241,226,154,209,134,45,141,70,69,94,243,54,78,69,114,80,165]},"announce":[],"urlList":[]}}